<?xml version="1.0" encoding="utf-8"?>
<!-- Generator: Adobe Illustrator 22.1.0, SVG Export Plug-In . SVG Version: 6.00 Build 0)  -->
<svg version="1.1" id="レイヤー_1" xmlns="http://www.w3.org/2000/svg" xmlns:xlink="http://www.w3.org/1999/xlink" x="0px"
	 y="0px" viewBox="0 0 12.8 12" style="enable-background:new 0 0 12.8 12;" xml:space="preserve">
<style type="text/css">
	.st0{fill:#3F51B5;}
</style>
<path class="st0" d="M12.8,6.1c0-0.9-0.7-1.3-1.6-1.3H8.5c0.2-0.7,0.3-1.3,0.3-2C8.8,0.5,8.2,0,7.6,0c-0.4,0-0.7,0.1-1,0.3
	c-0.1,0-0.2,0.1-0.2,0.2L6,2.7C5.5,3.8,4.7,4.8,3.6,5.5v5.7c0.4,0,0.7,0.2,1,0.3C5.1,11.8,5.5,12,6,12h3.8c0.7,0,1.3-0.5,1.4-1.2
	c0-0.1,0-0.2,0-0.3c0.5-0.2,0.8-0.6,0.8-1.1c0-0.2,0-0.4-0.1-0.6c0.3-0.2,0.6-0.6,0.6-1c0-0.2-0.1-0.5-0.3-0.7
	C12.6,6.9,12.8,6.5,12.8,6.1L12.8,6.1z"/>
<path id="Fill-6_2_" class="st0" d="M3.2,12H0.8C0.4,12,0,11.7,0,11.3l0,0V5.6c0-0.4,0.3-0.8,0.8-0.8l0,0h2.4C3.6,4.8,4,5.2,4,5.6
	l0,0v5.6C4,11.7,3.7,12,3.2,12L3.2,12L3.2,12z M0.8,5.6v5.6h2.4V5.6H0.8z"/>
</svg>
