<svg xmlns="http://www.w3.org/2000/svg" viewBox="0 0 12.827 12.026">
  <defs>
    <style>
      .cls-1 {
        fill: #707070;
      }
    </style>
  </defs>
  <g id="if_like_1814076" transform="translate(0 0)">
    <g id="Icon-Like" transform="translate(0 0)">
      <path id="Fill-4_2_" class="cls-1" d="M-47.28-512.38c0-.855-.668-1.31-1.6-1.31h-2.7a8.258,8.258,0,0,0,.294-2c0-2.325-.641-2.806-1.2-2.806a1.622,1.622,0,0,0-1.015.267.387.387,0,0,0-.187.267l-.4,2.165a7.042,7.042,0,0,1-2.405,2.806v5.719a2.421,2.421,0,0,1,1.016.347,3.133,3.133,0,0,0,1.39.428h3.821a1.356,1.356,0,0,0,1.39-1.2A1,1,0,0,0-48.91-508a1.188,1.188,0,0,0,.828-1.1,1.394,1.394,0,0,0-.134-.615,1.314,1.314,0,0,0,.615-.989,1.115,1.115,0,0,0-.267-.668,1.359,1.359,0,0,0,.588-1.016Zm-.828,0c0,.508-.534.561-.615.8-.08.267.321.374.321.855,0,.508-.615.508-.695.748-.107.294.187.4.187.882v.08c-.08.4-.695.428-.8.588-.107.187.027.294.027.721,0,.24-.267.4-.588.4h-3.821a2.421,2.421,0,0,1-1.015-.348,4.519,4.519,0,0,0-.989-.4V-512.3a8.043,8.043,0,0,0,2.779-3.287c0-.027,0-.053.027-.053l.374-2a1.115,1.115,0,0,1,.454-.053c.08,0,.4.481.4,2a7.391,7.391,0,0,1-.321,2h-.107a.411.411,0,0,0-.4.4.411.411,0,0,0,.4.4h3.608c.4,0,.775.187.775.508Z" transform="translate(60.108 518.5)"/>
      <path id="Fill-6_2_" class="cls-1" d="M-66.793-506.474H-69.2a.787.787,0,0,1-.8-.8v-5.612a.787.787,0,0,1,.8-.8h2.405a.787.787,0,0,1,.8.8v5.612a.787.787,0,0,1-.8.8Zm-2.405-6.414v5.612h2.405v-5.612ZM-70-518.5" transform="translate(70 518.5)"/>
    </g>
  </g>
</svg>
